<?xml version="1.0" encoding="iso-8859-1"?>
<!-- Generator: Adobe Illustrator 19.0.0, SVG Export Plug-In . SVG Version: 6.00 Build 0)  -->
<svg version="1.1" id="Capa_1" xmlns="http://www.w3.org/2000/svg" xmlns:xlink="http://www.w3.org/1999/xlink" x="0px" y="0px"
	 viewBox="0 0 383.013 383.013" style="enable-background:new 0 0 383.013 383.013;" xml:space="preserve">
<path style="fill:#FA9E15;" d="M230.707,111.813c-3.2-0.8-10.4-0.8-19.2-1.6c8,20-1.6,42.4-20.8,51.2s-42.4-1.6-51.2-20.8
	c-3.2-8-4-16.8-1.6-24.8c-43.2,8.8-74.4,27.2-95.2,56l308.8,56.8L230.707,111.813z"/>
<circle style="fill:#FDE7AE;" cx="176.307" cy="129.413" r="23.2"/>
<g>
	<polygon style="fill:#FA9E15;" points="37.907,312.613 369.107,373.413 369.107,333.413 37.907,274.213 	"/>
	<polygon style="fill:#FA9E15;" points="37.907,186.213 37.907,217.413 369.107,277.413 369.107,247.013 283.507,231.013 	"/>
</g>
<polygon style="fill:#FDE7AE;" points="38.707,263.013 369.907,323.013 369.907,299.013 38.707,239.013 "/>
<path style="fill:#873C1B;" d="M372.307,229.413v-0.8c0-0.8-0.8-0.8-0.8-1.6l-0.8-0.8l0,0l-142.4-136c-0.8-0.8-2.4-1.6-4-2.4
	c-12-1.6-24.8-2.4-36.8-2.4c-4.8-4-10.4-6.4-16-7.2c-1.6-14.4,0-48,28-62.4c4-2.4,5.6-7.2,3.2-11.2s-7.2-5.6-11.2-4l0,0
	c-36,19.2-37.6,59.2-36.8,76.8c-7.2,1.6-13.6,4.8-19.2,10.4c-58.4,8.8-101.6,35.2-124.8,76l0,0v0.8c0,0.8-0.8,1.6-0.8,3.2l0,0v143.2
	c0,4,2.4,7.2,6.4,8l347.2,64h1.6c4.8,0,8-3.2,8-8v-144c0,0,0,0,0-0.8L372.307,229.413z M163.507,92.613c12.8,0,23.2,10.4,23.2,23.2
	s-10.4,23.2-23.2,23.2s-23.2-10.4-23.2-23.2l0,0C140.307,103.013,150.707,92.613,163.507,92.613z M125.907,106.213
	c-0.8,3.2-1.6,6.4-1.6,9.6c-0.8,21.6,16,39.2,37.6,40s39.2-16,40-37.6c0-5.6-0.8-11.2-3.2-16.8c8.8,0.8,16,1.6,19.2,1.6l121.6,116
	l-308-57.6C51.507,133.413,83.507,114.213,125.907,106.213z M357.107,364.613l-331.2-60.8v-38.4l331.2,60V364.613z M357.107,308.613
	l-331.2-60v-24l331.2,60V308.613z M357.107,268.613l-331.2-60v-32l245.6,45.6l85.6,16V268.613z"/>
<g>
</g>
<g>
</g>
<g>
</g>
<g>
</g>
<g>
</g>
<g>
</g>
<g>
</g>
<g>
</g>
<g>
</g>
<g>
</g>
<g>
</g>
<g>
</g>
<g>
</g>
<g>
</g>
<g>
</g>
</svg>
